<?xml version="1.0" standalone="no"?>
<!DOCTYPE svg PUBLIC "-//W3C//DTD SVG 1.0//EN" "http://www.w3.org/TR/2001/REC-SVG-20010904/DTD/svg10.dtd">
<svg xmlns="http://www.w3.org/2000/svg" xmlns:xlink="http://www.w3.org/1999/xlink" id="body_1" width="71" height="53">

<g transform="matrix(0.044166666 0 0 0.044166666 8.999999 -0)">
	<g>
        <path d="M810.092 433.824C 803.22595 408.903 793.509 383.273 781.22296 357.643C 767.17 328.305 751.71094 299.048 736.748 270.741L736.748 270.741L734.954 267.368C 723.845 246.36801 711.786 225.436 700.11597 205.199C 697.707 200.996 695.284 196.794 692.87494 192.591C 690.35895 188.214 687.86896 183.824 685.36694 179.435C 676.45294 163.749 667.23193 147.528 657.23395 132.109C 655.8549 129.967 654.44995 127.84 653.0449 125.72499C 651.19794 122.940994 649.2979 120.04999 647.4769 117.19899C 645.2819 113.71899 643.12695 110.21199 640.9719 106.718994C 636.9569 100.201 632.8209 93.481995 628.45795 87.03099C 621.73895 77.07299 614.51196 69.22999 606.3209 63.03299C 605.3039 62.25699 604.1129 61.76199 602.8549 61.22599C 602.27893 60.98499 601.67694 60.73099 601.0479 60.43599L601.0479 60.43599L599.5219 59.71299L599.1609 61.35899C 598.81287 62.96499 598.4779 64.47799 598.15686 65.90999C 597.59485 68.41299 597.0859 70.71499 596.61786 73.01699C 594.19586 84.78099 590.30084 97.20199 584.7059 110.98699C 584.0099 112.69999 583.27386 114.23899 582.43085 115.69799C 579.72687 120.43599 576.13983 124.23699 571.48285 127.35499C 557.93787 136.38899 543.44385 144.32599 529.43085 151.995C 527.11584 153.267 524.79987 154.538 522.48486 155.80899C 497.05487 169.82199 478.21088 181.90799 461.40088 194.984C 449.94388 203.911 440.8159 214.471 434.28488 226.383C 426.2949 240.958 418.89288 257.273 411.6659 276.225C 401.9089 301.789 387.15988 325.732 366.5889 349.409C 362.3189 354.32098 356.8319 360.879 352.1609 368.026C 341.5879 384.247 341.9889 396.748 353.5929 412.595L353.5929 412.595L354.0879 413.278C 355.0379 414.59003 356.0289 415.95502 357.2729 417.092C 359.6019 419.26 361.9169 421.44202 364.23288 423.61002C 371.5539 430.476 379.11588 437.56903 386.85187 444.221C 392.56686 449.133 399.21887 452.867 406.64688 455.33002C 420.9679 460.05502 432.46487 457.52502 441.77988 447.60703C 445.68787 443.44504 449.5829 439.148 453.34387 434.99902C 455.00388 433.17902 456.66287 431.34503 458.33588 429.51102C 459.7949 427.91803 461.22687 426.286 462.65887 424.66602C 465.53687 421.40002 468.52087 418.028 471.65286 414.949C 471.96088 414.628 472.28186 414.32 472.58987 414.012C 488.6909 398.58 506.06287 389.867 525.6839 387.36398C 535.23987 386.159 545.4249 384.995 555.4099 385.26297C 565.3269 385.53098 575.1109 383.85797 585.3369 380.16397C 601.51794 374.30197 614.6079 363.15298 625.3549 346.07498C 625.70294 345.53998 626.0369 345.00397 626.35895 344.469C 626.82697 343.72 627.2559 342.863 627.69696 341.806C 628.058 340.95 628.37994 340.079 628.714 339.196L628.714 339.196L629.102 338.125C 633.18396 327.471 633.773 316.082 630.976 302.269C 630.815 301.453 630.588 300.62302 630.36 299.793C 629.73096 297.424 629.12897 295.189 629.958 292.967C 632.14 292.87302 633.37103 294.332 635.097 296.634L635.097 296.634L635.204 296.781C 640.49097 303.861 642.91296 312.239 642.204 321.03302C 641.548 329.264 639.782 336.88 636.958 343.652C 634.295 350.023 630.627 355.80402 626.05 360.81C 620.87 366.458 614.62 372.922 607.45996 377.928C 591.62695 388.997 574.696 394.31 557.09595 393.694C 551.15295 393.493 545.27795 393.587 540.3259 393.707C 538.66595 393.747 535.60095 393.814 534.3839 397.682L534.3839 397.682L534.2099 398.204L535.1869 400.131C 535.97687 401.683 536.8329 403.397 537.7429 405.096C 548.3559 425.065 547.9679 444.552 536.56494 462.995C 531.2379 471.61398 524.86694 481.8 518.06793 492.132C 514.5479 497.472 510.59995 502.879 506.34393 508.233C 501.52594 514.256 496.55994 520.34503 491.76892 526.234C 484.78293 534.773 477.5689 543.62 470.67593 552.493C 451.97894 576.571 438.99594 602.75 432.11694 630.308C 428.89093 643.25 427.37894 656.634 425.90695 669.57697L425.90695 669.57697L425.85297 670.05896C 423.21597 693.2269 426.01398 716.006 434.40497 739.66895C 439.50397 753.9899 443.53296 768.99396 447.42798 783.50195L447.42798 783.50195L447.93698 785.44293C 449.61 791.65295 450.47998 798.2379 451.32297 804.60895L451.32297 804.60895L451.67096 807.21893C 453.08997 817.7929 454.05295 826.54596 454.72195 834.80396C 455.41797 843.24896 453.94595 851.82794 450.34595 860.2999C 448.48596 864.66394 446.35794 868.99994 444.29596 873.2019L444.29596 873.2019L443.23895 875.34393C 439.58496 882.82495 435.90396 890.30695 432.22394 897.78894C 430.00195 902.29895 427.77994 906.80896 425.55893 911.31995C 420.59393 921.4379 417.51492 932.33295 414.53094 942.87994C 414.00894 944.71295 413.49994 946.561 412.96494 948.3939C 409.32492 961.0019 410.72995 972.7399 417.23492 984.26294L417.23492 984.26294L417.52893 984.77094L418.09094 984.9049C 419.12195 985.14594 420.17896 985.3999 421.24994 985.6679C 423.63193 986.2299 426.09494 986.8319 428.58395 987.3679C 433.68295 988.4519 439.10394 989.3889 445.13995 990.24493C 452.39395 991.26196 459.54095 991.9979 466.17996 992.65393C 475.77597 993.5769 485.80096 994.17993 495.98596 994.44794C 500.54996 994.56793 505.16696 994.62195 509.69095 994.6079L509.69095 994.6079L512.88995 994.6079C 524.61395 994.56793 536.7399 994.5279 548.58496 995.4249C 559.761 996.26794 571.25696 996.6829 583.24994 996.6829C 593.9569 996.6829 605.0659 996.3479 616.70996 995.6789C 637.977 994.4339 659.566 992.8279 680.444 991.2759C 688.113 990.71387 695.769 990.13885 703.42395 989.5899C 706.061 989.3889 708.68396 989.2149 711.3209 989.0279C 720.7699 988.3719 730.5399 987.6899 740.1099 986.6859C 743.7769 986.3109 747.4849 985.8289 751.0709 985.3609C 758.9939 984.3169 767.18494 983.2459 775.32294 983.2459C 776.66095 983.2459 777.97296 982.9779 779.3519 982.6839C 779.9539 982.5499 780.5969 982.4159 781.2659 982.3089L781.2659 982.3089L782.2429 982.1349L782.3629 981.1579C 782.4699 980.3149 782.5899 979.5249 782.71094 978.7619C 782.95197 977.1559 783.16595 975.6169 783.25995 974.0909C 783.7819 963.8789 782.18896 953.2519 778.09393 939.6269C 772.3659 920.6349 765.0039 902.1249 756.19794 884.6059C 748.22095 868.7329 742.74695 851.9349 738.86597 839.0739C 734.63696 825.0879 733.285 809.7229 734.76996 792.1229C 735.55994 782.87494 737.21893 774.5499 739.69495 767.40295C 750.509 736.37897 760.33295 711.3779 770.59894 688.71893L770.59894 688.71893L771.70996 686.26996C 784.34393 658.45795 797.394 629.696 806.321 599.72894C 813.12 576.85596 817.109 555.29395 818.514 533.83997C 818.92896 527.443 819.08997 521.07196 819.08997 514.87494C 819.08997 504.94394 818.675 495.42795 818.207 486.87595C 817.105 466.977 814.455 449.618 810.092 433.824zM501.002 227.163C 503.893 239.905 503.06302 244.415 496.96002 249.12599C 490.42902 254.15799 486.41302 255.01498 476.88403 249.849L476.88403 249.849L476.50903 249.648L476.09402 249.702C 473.84503 249.943 472.57404 251.549 471.45 252.954C 470.527 254.118 469.871 254.89499 469.001 255.16199C 470.56702 246.03398 475.117 235.67499 479.909 230.482C 486.092 223.75 494.257 220.21599 502.78198 220.21599C 506.87698 220.21599 511.03998 221.01898 515.109 222.69199C 515.631 222.89299 516.166 223.50899 516.728 224.15099C 516.79504 224.23099 516.862 224.31099 516.942 224.39198C 514.33203 227.69798 511.37402 227.04198 507.69403 226.22598C 505.90103 225.82498 504.05402 225.40999 502.22003 225.52998L502.22003 225.52998L500.66702 225.63698L501.002 227.163z" stroke="none" fill="#CEC7BD" fill-rule="nonzero" />
        <path d="M782.777 1043.336C 772.66296 1047.477 761.198 1052.1691 749.21796 1054.395C 739.62195 1056.178 726.96094 1058.436 714.11993 1060.085C 694.3259 1062.627 677.80695 1064.4619 662.13293 1065.8619C 654.12195 1066.573 645.94293 1067.0399 638.03296 1067.491C 629.894 1067.955 621.47797 1068.4349 613.214 1069.182C 599.97797 1070.383 585.701 1070.59 569.55 1069.82C 566.53296 1069.6799 563.30896 1069.497 559.967 1069.272C 550.471 1068.651 540.97296 1068.074 531.474 1067.497C 521.318 1066.88 511.163 1066.262 501.01 1065.591L501.01 1065.591L499.45602 1065.4889C 489.77002 1064.8539 479.75302 1064.1979 469.954 1063.1058C 463.72702 1062.4119 457.407 1061.5448 451.294 1060.7079C 443.295 1059.6129 435.023 1058.4789 426.837 1057.7119C 415.749 1056.653 404.28302 1055.5609 393.357 1051.4869C 386.65298 1048.975 384.514 1050.2699 380.63 1056.018C 368.765 1073.5359 364.30402 1090.8319 366.991 1108.8949L366.991 1108.8949L367.063 1109.3759L367.426 1109.6989C 375.318 1116.7029 385.356 1119.2988 394.146 1121.1829C 417.033 1126.0958 442.975 1131.6628 469.044 1133.4298C 477.92502 1134.0358 486.954 1134.7788 495.685 1135.4948C 511.00198 1136.7538 526.841 1138.0537 542.453 1138.6777C 558.512 1139.3278 570.805 1139.6157 582.31104 1139.6157C 600.13403 1139.6157 615.94006 1138.8767 630.632 1137.3597C 644.19104 1135.9547 658.031 1135.0618 671.417 1134.1997C 691.566 1132.8997 712.402 1131.5557 732.816 1128.4368C 751.72595 1125.5427 769.691 1120.7047 788.711 1115.5837C 795.958 1113.6327 803.453 1111.6147 810.996 1109.7147L810.996 1109.7147L811.86896 1109.4948L811.99396 1108.6038C 812.23096 1106.9218 812.52094 1105.3218 812.8 1103.7748C 813.38196 1100.5527 813.932 1097.5088 813.867 1094.4568C 813.53 1078.7638 808.479 1063.5068 798.424 1047.8158C 793.935 1040.812 791.012 1039.973 782.777 1043.336z" stroke="none" fill="#CEC7BD" fill-rule="nonzero" />
        <path d="M390.851 1041.937L391.48 1042.229C 398.62402 1045.542 405.88702 1047.499 413.685 1048.211C 428.90698 1049.587 444.371 1051.052 459.328 1052.4711L459.328 1052.4711L460.269 1052.56C 464.56 1052.9701 468.85 1053.4191 473.139 1053.8661C 481.999 1054.7911 491.163 1055.748 500.204 1056.3391C 513.375 1057.211 526.779 1057.909 539.739 1058.5831C 547.36304 1058.9801 554.98804 1059.3782 562.676 1059.8121L562.676 1059.8121L563.95 1059.9001C 565.25 1059.9631 566.541 1060.0392 567.84 1060.1141L567.84 1060.1141L568.05804 1060.1271C 573.71906 1060.4591 579.94904 1060.7451 586.49506 1060.7451C 592.1061 1060.7451 597.94806 1060.5352 603.86505 1059.961C 612.28406 1059.149 620.8721 1058.54 629.17804 1057.952C 634.06104 1057.6061 638.94305 1057.259 643.822 1056.8721C 647.09503 1056.6111 650.36804 1056.353 653.64 1056.097C 666.08 1055.123 678.943 1054.1161 691.577 1052.827C 696.64703 1052.312 701.757 1051.5231 706.70105 1050.758C 712.57904 1049.8501 718.655 1048.911 724.645 1048.441C 740.702 1047.1901 756.06903 1042.515 770.931 1037.994C 775.30804 1036.662 779.83405 1035.286 784.30304 1034.019C 787.155 1033.211 789.01 1031.1791 789.52606 1028.295C 790.9551 1020.35706 791.71704 1011.088 786.5301 1002.528C 785.15106 1000.24304 783.7671 997.966 782.2781 995.516L782.2781 995.516L779.38806 990.76L778.53204 990.862C 772.45605 991.591 766.403 992.4 760.55005 993.183C 745.5751 995.185 731.431 997.07697 716.89105 997.733C 699.5411 998.509 681.93604 999.77295 664.90906 1000.995C 651.33905 1001.969 637.30707 1002.976 623.50006 1003.729C 606.38403 1004.656 588.2051 1005.043 567.90204 1004.933C 557.57306 1004.873 547.06104 1004.474 536.89703 1004.08997C 528.91003 1003.787 520.64905 1003.47394 512.52704 1003.32794L512.52704 1003.32794L511.12903 1003.29895C 481.49603 1002.8129 456.903 1000.595 433.73602 996.32196L433.73602 996.32196L433.61203 996.30096C 430.07504 995.64197 426.49304 994.923 422.96503 994.16296C 421.50903 993.844 420.18402 993.64294 418.90503 993.54895C 410.82104 992.81793 404.88202 995.902 399.61502 1003.52997C 394.23102 1011.326 391.00803 1020.805 389.471 1033.359C 389.23602 1035.279 389.726 1037.174 390.2 1039.005C 390.39502 1039.759 390.591 1040.512 390.72702 1041.256L390.72702 1041.256L390.851 1041.937z" stroke="none" fill="#CEC7BD" fill-rule="nonzero" />
        <path d="M842.211 417.347C 837.243 404.62 832.105 391.46 827.945 378.25998C 821.013 356.26898 810.727 335.386 800.786 315.87897C 795.56604 305.63596 790.288 297.98096 784.179 291.78696C 775.69104 283.17996 771.403 272.59094 768.033 262.42996C 764.335 251.28096 760.129 240.43097 755.533 230.18196C 747.75104 212.82996 737.78503 196.36096 728.148 180.43497C 724.913 175.09097 721.57 169.56396 718.297 163.98297C 717.54297 162.69797 716.764 161.36897 715.75 160.19298L715.75 160.19298L712.09 155.93698C 700.414 142.34898 688.34 128.29898 674.875 115.90898C 668.376 109.92698 661.275 105.07798 651.85 100.181984L651.85 100.181984L648.75995 98.57698L649.97894 101.83898C 653.6409 111.63498 658.34296 118.622986 662.88794 125.37898C 663.80896 126.748985 664.72296 128.10698 665.6179 129.47498C 668.0749 133.22697 670.58295 136.95097 673.0899 140.67497C 678.5629 148.79897 684.2209 157.20097 689.2129 165.77097C 702.5299 188.62596 716.4669 213.35696 731.8179 241.37997C 740.35785 256.96497 748.8429 272.92398 757.04987 288.35696C 762.89087 299.34097 768.9299 310.69897 774.9419 321.83496C 787.6229 345.31995 797.6559 369.74695 807.6629 394.79495C 819.5649 424.58594 826.1779 452.32895 827.8829 479.61194C 829.5509 506.29993 830.3979 534.96094 825.34985 563.7279C 825.31287 563.9419 825.19586 564.2479 825.07184 564.5719C 824.6218 565.7389 823.68884 568.1699 826.50684 569.7019L826.50684 569.7019L827.43884 570.2079L828.14484 569.4169C 828.31586 569.22485 828.49286 569.0539 828.6608 568.8879C 829.1008 568.45685 829.55585 568.01086 829.8568 567.3879C 839.3378 547.70386 846.1158 531.31885 851.1858 515.82385C 852.9048 510.57086 853.9948 505.35486 854.4258 500.32086C 856.8678 471.87488 853.4718 446.27087 844.0428 422.05087L844.0428 422.05087L842.211 417.347z" stroke="none" fill="#CEC7BD" fill-rule="nonzero" />
        <path d="M488.056 140.211C 490.219 141.875 492.455 143.595 494.385 145.507C 496.509 147.613 498.45602 150.015 500.34 152.339C 501.173 153.36801 502.005 154.395 502.856 155.403L502.856 155.403L503.431 156.084L504.281 155.817C 504.753 155.668 505.187 155.553 505.58902 155.446C 506.445 155.219 507.25302 155.004 507.99902 154.593C 524.797 145.463 541.583 136.271 557.81604 127.381004C 558.90607 126.786 559.97107 126.142006 561.03705 125.49901C 562.17804 124.809006 563.35803 124.09501 564.54205 123.464005C 569.3351 120.879005 572.62506 117.215004 574.60004 112.261C 576.103 108.478004 577.65106 104.709 579.19806 100.938C 580.74805 97.159004 582.30005 93.381004 583.80804 89.588005C 584.1741 88.66701 584.0881 87.71001 584.01105 86.867004C 583.98505 86.57001 583.95605 86.274 583.95605 85.989006L583.95605 85.989006L583.95605 84.72201L582.6921 84.65301C 570.5091 83.97301 551.6531 90.17701 542.3341 97.91501L542.3341 97.91501L540.6561 99.310005L542.65814 100.174C 543.6931 100.621 544.71313 101.047005 545.7191 101.469C 548.1631 102.491005 550.4701 103.457 552.70514 104.582C 553.38214 104.923004 553.79913 105.328 553.9451 105.788C 554.0651 106.164 554.0191 106.630005 553.80914 107.176C 553.64417 107.214005 553.4741 107.254005 553.30316 107.296005C 552.4772 107.495 551.6252 107.704 550.9122 107.62401C 535.4032 105.88301 521.2872 110.09601 505.75018 115.35501C 496.02017 118.66301 489.13617 125.53201 484.70618 136.354L484.70618 136.354L484.33017 137.27501L485.10416 137.90102C 486.073 138.686 487.064 139.448 488.056 140.211z" stroke="none" fill="#CEC7BD" fill-rule="nonzero" />
		<g>
            <path d="M503.655 155.313L503.367 154.972C 502.519 153.967 501.689 152.943 500.857 151.919C 498.96298 149.58101 497.004 147.164 494.85498 145.03401C 492.89597 143.09201 490.64197 141.35901 488.46198 139.682C 487.47498 138.923 486.48798 138.16301 485.52197 137.38301L485.52197 137.38301L485.13498 137.07101L485.32297 136.61002C 489.67697 125.97701 496.42798 119.23302 505.96396 115.99202C 521.42395 110.75902 535.462 106.56402 550.83594 108.29202C 551.67194 108.383026 552.57794 108.163025 553.45795 107.94802C 553.74396 107.87902 554.02094 107.81202 554.2869 107.75702C 554.6749 106.92302 554.7739 106.194016 554.57996 105.58602C 554.37695 104.94902 553.847 104.41102 553.00494 103.98602C 550.74896 102.84902 548.42993 101.87902 545.97595 100.85202C 544.9719 100.43202 543.954 100.00602 542.92096 99.56102L542.92096 99.56102L541.92 99.12802L542.759 98.43102C 551.97 90.78202 570.61597 84.637024 582.652 85.32102L582.652 85.32102L583.285 85.356026L583.285 85.98903C 583.285 86.29403 583.315 86.61003 583.344 86.92703C 583.416 87.73303 583.492 88.56703 583.185 89.341034C 581.678 93.131035 580.128 96.907036 578.578 100.685036C 577.031 104.45704 575.482 108.229034 573.977 112.01404L573.977 112.01404L573.977 112.01504C 572.062 116.81404 568.873 120.367035 564.224 122.87504C 563.027 123.51204 561.839 124.23004 560.69 124.92404C 559.633 125.56304 558.577 126.20204 557.49603 126.793045C 541.26306 135.68204 524.47705 144.87404 507.67902 154.00404C 507.002 154.37804 506.26703 154.57304 505.41702 154.80005C 505.00702 154.90805 504.562 155.02605 504.08102 155.17805L504.08102 155.17805L503.655 155.313zM486.756 136.654C 487.58902 137.319 488.43402 137.96901 489.28 138.62001C 491.493 140.322 493.78 142.08202 495.798 144.08202C 498 146.26501 499.982 148.71002 501.89902 151.07602C 502.631 151.97902 503.363 152.88202 504.10803 153.77202C 504.44803 153.67302 504.76804 153.58801 505.07303 153.50702C 505.87003 153.29501 506.49902 153.12802 507.03702 152.83102C 523.835 143.70003 540.62103 134.50902 556.853 125.620026C 557.91705 125.038025 558.95703 124.40803 559.99805 123.78003C 561.163 123.07603 562.366 122.34703 563.59204 121.69503C 567.95 119.34403 570.94104 116.01503 572.73303 111.52003C 574.24005 107.73003 575.79004 103.954025 577.34 100.176025C 578.887 96.40402 580.43604 92.63203 581.94104 88.84702C 582.13104 88.370026 582.07306 87.72802 582.012 87.04702C 581.999 86.90702 581.987 86.76702 581.97504 86.62902C 570.61804 86.26402 553.57306 91.75002 544.478 98.76902C 545.156 99.05802 545.828 99.33902 546.49304 99.61702C 548.97003 100.65302 551.309 101.63202 553.60706 102.790016C 554.7831 103.38202 555.54004 104.18602 555.8561 105.17802C 556.18506 106.209015 556.00806 107.38302 555.3291 108.665016L555.3291 108.665016L555.1731 108.959015L554.8451 109.013016C 554.5121 109.068016 554.1511 109.155014 553.7751 109.24702C 552.8291 109.47702 551.7571 109.737015 550.69006 109.62102C 535.5931 107.92302 521.69806 112.07702 506.39508 117.25802C 497.387 120.32 490.959 126.667 486.756 136.654z" stroke="none" fill="#DED9D1" fill-rule="nonzero" />
		</g>
        <path d="M571.857 168.527C 555.28796 186.314 529.283 190.611 506.998 200.34099C 462.818 219.64099 431.05698 264.718 427.75198 312.81998C 427.06897 322.71097 427.48398 332.77496 424.982 342.35797C 420.124 360.88098 404.79898 380.11398 414.275 396.73697C 421.047 408.60898 436.8 411.08496 450.425 412.26196C 457.184 412.83795 463.943 413.42596 470.702 414.00195C 466.004 418.61896 461.788 423.74496 457.345 428.61694C 451.831 434.65295 446.397 440.74295 440.802 446.68494C 431.273 456.82993 419.776 458.24893 407.061 454.05994C 399.914 451.69095 393.342 448.03693 387.721 443.20493C 377.603 434.5049 367.966 425.21692 358.183 416.11594C 356.83102 414.87094 355.76102 413.29193 354.66302 411.80594C 343.46103 396.49493 342.885 384.71695 353.28403 368.76294C 357.52704 362.25793 362.49203 356.16895 367.59103 350.29294C 386.75702 328.23593 402.44302 304.13193 412.90903 276.70795C 419.40002 259.69696 426.68103 243.04695 435.46103 227.02695C 442.22003 214.69995 451.321 204.52895 462.21603 196.04295C 481.31503 181.18695 501.94003 168.65895 523.12604 156.98795C 539.69507 147.85994 556.42505 138.99994 572.218 128.46695C 577.18304 125.16095 580.864 121.14595 583.594 116.36795C 588.801 134.197 584.598 154.862 571.857 168.527z" stroke="none" fill="#ADA39E" fill-rule="nonzero" />
		<g>
            <path d="M622.46 349.352L623.583 345.18298C 623.71204 344.69897 623.817 344.20297 623.922 343.706C 624.01 343.29 624.322 342.589 625.977 340.82898L625.977 340.82898L628.535 338.11L627.082 341.547C 626.64496 342.577 626.23596 343.396 625.792 344.123C 625.469 344.66397 625.131 345.19098 624.79297 345.71597L624.79297 345.71597L622.46 349.352z" stroke="none" fill="#DED9D1" fill-rule="nonzero" />
		</g>
        <path d="M422.679 995.47C 426.279 996.246 429.87997 996.969 433.47998 997.638C 428.47397 997.049 423.54898 996.166 418.81097 994.881C 420.042 994.975 421.327 995.175 422.679 995.47z" stroke="none" fill="#ADA39E" fill-rule="nonzero" />
        <path d="M638.188 344.165C 638.415 364.535 631.188 384.879 621.11 402.814C 609.05096 424.26898 593.01697 443.167 578.964 463.363C 544.433 512.991 521.921 570.903 513.864 630.81C 510.987 652.144 510.07602 674.61597 518.481 694.437C 527.154 714.848 544.687 730.039 562.48804 743.235C 568.859 747.959 576.153 754.678 573.958 762.29297C 572.553 767.152 567.721 770.042 563.438 772.719C 528.318 794.696 505.71298 833.656 498.499 874.451C 491.472 914.162 497.99 955.384 511.843 993.274L511.843 993.274L509.688 993.274C 505.124 993.287 500.57397 993.234 496.02298 993.114C 486.119 992.859 476.22797 992.284 466.31097 991.32C 459.28397 990.637 452.28497 989.901 445.32498 988.924C 439.81097 988.148 434.32297 987.224 428.86298 986.06C 425.26297 985.284 421.70297 984.387 418.39697 983.611C 411.95898 972.208 410.79498 960.75104 414.248 948.77203C 417.848 936.28503 420.994 923.65 426.762 911.91205C 432.651 899.92004 438.58 887.94104 444.442 875.93604C 446.891 870.93005 449.39398 865.952 451.576 860.825C 455.10898 852.5 456.796 843.734 456.06 834.69904C 455.31 825.46405 454.22598 816.22906 452.995 807.04803C 452.005 799.687 451.148 792.23206 449.234 785.098C 445.09802 769.693 441.00302 754.221 435.663 739.218C 427.686 716.73303 424.474 693.953 427.178 670.21C 428.69 656.906 430.176 643.643 433.415 630.633C 440.549 602.071 453.759 576.455 471.733 553.31396C 483.35 538.36395 495.583 523.86896 507.388 509.06696C 511.55 503.84695 515.512 498.43994 519.179 492.87296C 525.523 483.24997 531.64 473.50595 537.702 463.70895C 549.734 444.23495 549.547 424.45395 538.92004 404.47095C 537.72906 402.23596 536.60504 399.96094 535.65405 398.08694C 536.564 395.20895 538.5851 395.08896 540.35205 395.04895C 545.92004 394.91495 551.50104 394.84796 557.05505 395.03595C 576.0071 395.69196 592.991 389.68195 608.22205 379.02896C 615.155 374.18396 621.29803 367.98697 627.04004 361.70996C 631.897 356.398 635.551 350.496 638.188 344.165z" stroke="none" fill="#ADA39E" fill-rule="nonzero" />
        <path d="M466.311 991.321C 459.284 990.638 452.285 989.902 445.325 988.925C 462.57703 987.855 480.217 988.925 496.02402 993.114C 486.119 992.86 476.228 992.284 466.311 991.321z" stroke="none" fill="#ADA39E" fill-rule="nonzero" />
        <path d="M564 1058.548C 542.76 1057.33 521.506 1056.406 500.292 1055.001C 486.975 1054.131 473.698 1052.4979 460.39398 1051.2269C 444.869 1049.7549 429.343 1048.283 413.804 1046.877C 406.336 1046.194 399.22897 1044.3469 392.042 1041.0149C 391.587 1038.5259 390.503 1035.9429 390.797 1033.5199C 392.068 1023.1339 394.625 1013.1089 400.715 1004.2889C 405.613 997.19586 411.047 994.1839 418.783 994.8799C 418.796 994.8799 418.796 994.8799 418.81 994.8799C 420.041 994.9739 421.326 995.1739 422.678 995.4689C 426.278 996.2449 429.879 996.9679 433.479 997.6369L433.479 997.6369L433.492 997.6369C 459.109 1002.3619 485.02002 1004.2079 511.10602 1004.6369C 511.561 1004.6499 512.03 1004.6499 512.48505 1004.6639C 509.15204 1006.0559 505.92703 1007.67487 503.53104 1010.56586C 495.75504 1019.9219 501.37604 1035.0858 511.36102 1042.0448C 521.34503 1048.9918 534.02 1050.3158 545.95905 1052.7118C 552.089 1053.931 558.433 1055.711 564 1058.548z" stroke="none" fill="#ADA39E" fill-rule="nonzero" />
        <path d="M582.31 1138.277C 569.047 1138.277 555.77 1137.875 542.506 1137.34C 518.027 1136.3629 493.60098 1133.766 469.13498 1132.093C 443.839 1130.38 419.119 1125.1741 394.42596 1119.874C 384.98996 1117.853 375.68796 1115.243 368.31396 1108.698C 365.40997 1089.171 371.20496 1072.32 381.73798 1056.768C 385.472 1051.241 387.02496 1050.5449 392.88696 1052.74C 403.83496 1056.822 415.19797 1057.946 426.70795 1059.044C 441.12296 1060.3949 455.41693 1062.8309 469.80396 1064.4369C 480.14996 1065.5879 490.53595 1066.2439 500.92197 1066.9269C 520.56995 1068.2249 540.23096 1069.3229 559.878 1070.6079C 563.07697 1070.8219 566.289 1071.0099 569.488 1071.1569C 559.06195 1072.8298 548.60895 1074.4899 538.17 1076.1488C 528.574 1077.6877 518.73596 1079.2938 510.291 1084.1259C 502.35397 1088.6628 495.649 1097.2418 497.10797 1106.2898C 499.20898 1119.3928 515.31 1124.1178 528.43994 1126.0848C 541.8909 1128.0929 555.3419 1130.1139 568.79297 1132.1208C 572.915 1132.7368 577.26495 1133.4589 580.464 1136.1228C 581.185 1136.724 581.801 1137.46 582.31 1138.277z" stroke="none" fill="#ADA39E" fill-rule="nonzero" />
        <path d="M706.109 550.764C 692.73804 597.393 663.001 638.63196 653.961 686.29C 651.358 700.013 654.373 719.08496 668.26697 720.509C 678.00494 721.508 685.506 712.48 691.055 704.41595C 722.699 658.43195 754.915 611.22296 768.951 557.1959C 788.44 482.17892 768.77496 398.10892 718.032 339.52094C 707.865 327.78192 689.148 319.78494 689.544 340.23193C 689.915 359.40094 702.424 384.82794 706.176 404.38193C 715.418 452.544 719.811 502.981 706.109 550.764z" stroke="none" fill="#DED9D1" fill-rule="nonzero" />
        <path d="M689.272 909.594C 701.85895 933.192 709.063 959.64 710.18195 986.362C 710.28595 988.838 710.42993 991.552 712.1149 993.369C 713.8449 995.234 716.64294 995.547 719.18494 995.64404C 732.66394 996.158 746.24396 993.87103 758.81195 988.97205C 759.1149 959.5361 745.1359 931.94403 729.79297 906.82104C 714.451 881.69904 697.128 857.06903 689.43494 828.655C 685.20294 813.02405 683.3449 784.04504 663.56995 779.64905C 647.626 776.10406 640.85895 788.37805 641.54895 801.51306C 643.523 839.067 672.35 877.868 689.272 909.594z" stroke="none" fill="#DED9D1" fill-rule="nonzero" />
        <path d="M645.855 1027.026C 641.518 1028.142 636.118 1030.747 636.789 1035.175C 637.20703 1037.932 639.937 1039.665 642.48 1040.8081C 650.144 1044.253 658.677 1045.7421 667.05396 1045.0951C 672.17896 1044.7001 677.209 1043.5251 682.2139 1042.3541C 703.00793 1037.4911 723.8009 1032.6271 744.5949 1027.7642C 775.3939 1020.5602 739.3039 1003.80316 723.6469 1005.98615C 697.982 1009.565 671.04 1020.546 645.855 1027.026z" stroke="none" fill="#DED9D1" fill-rule="nonzero" />
        <path d="M717.658 1084.375C 692.713 1090.979 665.793 1084.026 640.68304 1089.97C 637.62506 1090.694 634.442 1091.7109 632.37103 1094.074C 629.31006 1097.567 629.69604 1103.164 632.26105 1107.037C 634.82605 1110.91 639.09204 1113.323 643.42804 1114.989C 662.10504 1122.165 682.9971 1117.715 702.486 1113.188C 715.687 1110.122 728.888 1107.0549 742.08905 1103.989C 747.09406 1102.826 752.2261 1101.609 756.48004 1098.7261C 767.06104 1091.5521 764.2 1078.067 752.82007 1074.541C 743.105 1071.531 726.751 1081.968 717.658 1084.375z" stroke="none" fill="#DED9D1" fill-rule="nonzero" />
        <path d="M605.795 208.099C 601.232 214.715 594.946 219.908 589.295 225.622C 572.151 242.958 560.60095 265.74298 556.75195 289.819C 555.65497 296.682 555.199 303.895 557.587 310.422C 559.975 316.949 565.81396 322.618 572.756 322.942C 580.55096 323.305 587.211 317.07898 590.93097 310.21997C 594.65094 303.36096 596.438 295.57196 600.29395 288.78696C 611.63696 268.82895 637.819 261.95096 651.42993 243.46497C 660.3419 231.36096 662.79694 215.41197 660.9669 200.49297C 659.1369 185.57396 653.3899 171.43497 647.1469 157.76196C 644.2169 151.34497 641.1649 144.98396 637.9939 138.68297C 635.9229 134.56796 632.5639 123.81097 628.6519 121.25597C 620.8939 116.189964 615.81494 127.58597 614.3859 134.21396C 611.78094 146.29697 615.6709 160.05595 615.3709 172.43796C 615.072 184.86 612.991 197.668 605.795 208.099z" stroke="none" fill="#DED9D1" fill-rule="nonzero" />
		<g>
			<g>
                <path d="M621.653 239.151C 620.294 237.768 622.627 233.556 624.807 226.883C 627.068 220.245 628.954 210.804 628.803 200.09C 628.638 189.304 626.974 179.15 626.264 171.50299C 625.50696 163.85999 625.732 158.78699 627.52496 158.29199C 629.282 157.806 632.24097 161.872 635.397 169.14099C 636.964 172.782 638.552 177.256 639.83295 182.44499C 641.113 187.62599 642.04395 193.55699 642.14197 199.926C 642.204 206.34999 641.31 212.498 639.66797 217.881C 638.02295 223.26599 635.686 227.872 633.133 231.316C 630.58997 234.771 627.985 237.111 625.883 238.332C 623.784 239.567 622.29 239.787 621.653 239.151z" stroke="none" fill="#F1EEF1" fill-rule="nonzero" />
			</g>
		</g>
		<g>
			<g>
                <path d="M703.374 655.439C 702.593 654.95105 703.703 651.31104 706.33905 645.21704C 706.99805 643.69305 707.75305 642.01605 708.59906 640.19604C 709.4001 638.3511 710.18506 636.304 711.1011 634.15C 712.86707 629.80804 715.1631 625.02203 717.12805 619.478C 718.18506 616.74506 719.2911 613.88306 720.44403 610.901C 721.591 607.921 722.53503 604.722 723.66705 601.479C 724.22003 599.852 724.78204 598.198 725.35205 596.517C 725.6321 595.67505 725.94507 594.838 726.20605 593.97504C 726.452 593.10706 726.7001 592.23303 726.9501 591.353C 727.96405 587.84 729.00806 584.224 730.07806 580.517C 733.97705 565.588 737.44604 548.987 739.6421 531.335C 741.6591 513.66205 742.1911 496.71002 741.9121 481.28302C 741.7441 477.428 741.5791 473.66803 741.4201 470.015C 741.3841 469.1 741.3481 468.19202 741.3131 467.29102C 741.2621 466.39102 741.1551 465.50403 741.0811 464.62003C 740.92114 462.85202 740.7641 461.11203 740.60913 459.40103C 740.2711 455.98203 740.10614 452.65103 739.69214 449.48505C 739.27313 446.31503 738.8701 443.27304 738.48615 440.36804C 737.8801 434.51703 736.7742 429.32605 736.07916 424.69003C 735.6952 422.38104 735.4142 420.20703 735.06915 418.22504C 734.6752 416.25705 734.3362 414.44904 734.05316 412.81305C 732.92413 406.27005 732.7012 402.47104 733.57513 402.18005C 734.44916 401.88907 736.3411 405.14404 739.03815 411.35806C 739.71216 412.91107 740.43616 414.64905 741.2062 416.56207C 741.92816 418.48807 742.57715 420.6201 743.3202 422.90308C 744.7342 427.48608 746.5212 432.69006 747.7552 438.61407C 748.4272 441.57007 749.1302 444.66608 749.86316 447.89108C 750.5632 451.12708 750.99915 454.54108 751.5912 458.05908C 751.8662 459.82208 752.1462 461.6161 752.4302 463.43808C 752.5632 464.35007 752.72815 465.26807 752.8362 466.19708C 752.9262 467.1291 753.0182 468.06708 753.1092 469.0131C 753.4602 472.8011 753.82117 476.7001 754.1922 480.6981C 755.1772 496.7241 755.0022 514.4631 752.8912 532.91406C 750.6042 551.34406 746.60315 568.62604 741.8772 583.97205C 740.5772 587.77 739.3092 591.47504 738.0772 595.07404C 737.76624 595.971 737.45624 596.86206 737.14923 597.747C 736.82623 598.625 736.45026 599.478 736.1062 600.333C 735.4012 602.037 734.7082 603.715 734.0262 605.364C 732.6242 608.645 731.39716 611.86 729.9562 614.841C 728.48517 617.804 727.07416 620.64703 725.7262 623.362C 723.1342 628.83 720.1732 633.468 717.7212 637.59C 716.4622 639.635 715.32916 641.554 714.1752 643.25604C 712.9772 644.934 711.8642 646.45306 710.8442 647.804C 706.76 653.209 704.155 655.928 703.374 655.439z" stroke="none" fill="#F1EEF1" fill-rule="nonzero" />
			</g>
		</g>
		<g>
			<g>
                <path d="M722.939 946.328C 719.49005 947.726 703.96 917.338 686.50806 879.22C 669.1011 841.082 656.28204 809.454 659.59607 807.75995C 662.8401 806.095 681.09705 835.23694 698.6421 873.673C 716.228 912.09 726.32 944.964 722.939 946.328z" stroke="none" fill="#F1EEF1" fill-rule="nonzero" />
			</g>
		</g>
		<g>
			<g>
                <path d="M740.1 1016.158C 740.32996 1019.835 725.67096 1023.74304 707.358 1024.8881C 689.04596 1026.0321 674.014 1023.97906 673.784 1020.30304C 673.554 1016.62604 688.213 1012.718 706.526 1011.57306C 724.839 1010.429 739.87 1012.481 740.1 1016.158z" stroke="none" fill="#F1EEF1" fill-rule="nonzero" />
			</g>
		</g>
		<g>
			<g>
                <path d="M731.727 1088.407C 732.22 1090.168 729.14197 1092.789 723.621 1095.401C 718.10895 1098.0131 710.138 1100.56 701.08997 1102.145C 692.04095 1103.723 683.67896 1104.03 677.607 1103.442C 671.527 1102.857 667.743 1101.435 667.609 1099.611C 667.386 1095.893 681.47003 1092.0599 698.793 1089.0029C 716.126 1086.005 730.676 1084.834 731.727 1088.407z" stroke="none" fill="#F1EEF1" fill-rule="nonzero" />
			</g>
		</g>
        <path d="M378.929 1046.422C 378.352 1020.796 383.43698 999.31396 405.856 985.145C 405.46198 983.859 405.232 982.388 404.59097 981.125C 399.25598 970.62 399.16696 959.576 401.74097 948.497C 404.93396 934.753 408.57397 921.07404 414.51096 908.21204C 420.41797 895.41205 426.30396 882.62305 432.91797 870.12006C 444.20297 848.7881 444.86496 849.83704 442.29898 821.0101C 441.085 807.3691 438.404 793.7641 435.227 780.41907C 432.397 768.5331 428.66898 756.74506 424.09998 745.41205C 414.11197 720.63806 411.88797 694.9811 414.12598 668.78204C 416.18997 644.62103 420.791 620.94305 430.52097 598.53705C 438.69498 579.7131 448.75195 561.96405 461.61298 545.91205C 468.58096 537.215 475.54898 528.50006 482.929 520.15704C 499.991 500.86905 514.263 479.64505 527.561 457.67404C 536.576 442.78003 536.823 427.49704 530.49896 411.78003C 528.449 406.68503 526.654 401.35004 522.18994 396.69803C 518.71893 397.66403 515.11597 398.38104 511.72495 399.66202C 497.96094 404.86203 485.72794 412.397 476.10394 423.755C 471.53995 429.141 467.08295 434.624 462.36694 439.874C 457.15894 445.672 451.92593 451.478 446.31894 456.88098C 435.81195 467.00497 423.21393 469.65 409.19894 466.26697C 399.22794 463.85995 390.62296 458.59998 382.65594 452.50598C 367.23193 440.71097 353.81296 426.87997 342.19894 411.25397C 336.01794 402.93698 334.00494 394.01495 335.90295 383.94296C 337.42996 375.83896 339.39294 367.96997 344.71796 361.36496C 349.84296 355.00797 354.59195 348.31396 360.07495 342.28696C 378.27695 322.28195 392.53995 300.06494 401.97696 274.51697C 408.00897 258.18796 415.87497 242.52296 423.17197 226.67697C 432.15796 207.16498 447.07495 192.85696 464.42697 180.84097C 470.83896 176.40097 477.49396 172.31297 483.98398 167.98297C 487.01398 165.96097 489.917 163.74797 493.03497 161.50897C 491.23596 155.65697 487.12097 152.38597 483.31198 149.01398C 479.75098 145.86098 475.83 143.11497 471.63498 139.85397C 474.744 128.88698 481.03598 120.83397 489.895 115.001976C 498.57098 109.28998 507.675 104.22997 518.092 102.058975C 521.25397 101.39998 524.534 100.85798 527.02795 98.045975C 536.56494 87.293976 549.553 82.48398 562.79694 78.699974C 570.1809 76.58997 578.04596 76.16097 586.67896 74.821976C 587.27893 73.29198 588.28296 70.96597 589.10895 68.57797C 590.686 64.015976 592.01996 59.36497 593.7169 54.84997C 595.4259 50.30297 597.84894 49.027973 602.36993 50.715973C 605.79694 51.994972 609.12494 53.791973 612.13794 55.878975C 620.1519 61.429974 626.91595 68.393974 632.56793 76.27197C 636.8339 82.21697 642.09393 85.89597 648.92096 88.779976C 667.985 96.83398 684.321 109.02698 698.09094 124.56697C 701.78595 128.73697 705.569 132.83197 709.3809 136.89597C 718.80994 146.94696 727.5159 157.48796 734.2559 169.63297C 744.70593 188.46497 757.1409 206.18097 766.02893 225.89397C 769.2329 233.00096 772.5249 240.09297 775.23895 247.39096C 778.34595 255.74396 781.074 264.27197 780.60297 273.52496C 783.99396 277.11896 787.384 280.52197 790.55994 284.11496C 798.9769 293.63596 805.7589 304.28995 811.68896 315.48096C 831.076 352.06595 845.07697 390.86298 857.39294 430.21695C 865.24695 455.31595 866.59094 481.36496 862.60394 507.45294C 860.7979 519.27094 855.9639 530.26794 851.42993 541.23596C 841.05896 566.32697 828.55896 590.389 815.4729 614.15894C 812.7999 619.0139 810.6579 624.17993 808.5149 629.30396C 803.0709 642.31793 798.2309 655.60394 792.3119 668.39496C 777.1659 701.12396 763.6249 734.48895 751.3159 768.36993C 748.6339 775.7509 747.10895 783.3519 746.5139 791.18994C 745.0609 810.32996 747.2269 828.86597 753.5579 847.13293C 759.1789 863.35095 766.9569 878.55493 773.71094 894.23596C 781.66595 912.70496 788.5529 931.52795 792.06995 951.39795C 794.14795 963.134 795.5499 974.90796 791.77496 986.68896C 791.18994 988.516 791.57996 991.436 792.725 992.915C 802.514 1005.552 803.07495 1019.51196 799.30896 1034.234C 799.225 1034.564 799.41 1034.963 799.57294 1035.97C 808.5009 1043.966 814.20996 1054.667 819.03894 1066.028C 823.04297 1075.4509 824.87494 1085.2739 824.7379 1095.3419C 824.66394 1100.8069 823.35394 1106.3699 821.8269 1111.6659C 820.5509 1116.0898 817.2619 1119.1909 812.5989 1120.5989C 787.3689 1128.2158 762.32587 1136.3539 735.8879 1139.3059C 722.2569 1140.8279 708.75586 1143.6079 695.0049 1144.3539C 690.5549 1144.5948 686.11786 1145.0619 681.66986 1145.3508C 660.5419 1146.7249 639.42786 1148.5178 618.27686 1149.3008C 598.60583 1150.0298 578.87683 1150.2667 559.2079 1149.6448C 533.9619 1148.8468 508.7039 1147.5198 483.53387 1145.4258C 452.05988 1142.8068 420.78687 1138.3778 389.97888 1131.2018C 382.00888 1129.3458 374.28888 1126.6538 367.18088 1122.4348C 362.84286 1119.8599 360.27386 1116.2969 358.49088 1111.4198C 353.86386 1098.7648 355.34488 1086.6259 359.95486 1074.4678C 364.106 1063.521 370.108 1053.822 378.929 1046.422zM418.393 983.61C 421.697 984.386 425.267 985.28796 428.866 986.058C 441.224 988.699 453.721 990.108 466.313 991.325C 480.775 992.722 495.18698 993.315 509.68698 993.278C 522.687 993.245 535.734 993.116 548.68 994.093C 571.348 995.804 593.997 995.651 616.623 994.339C 645.545 992.66296 674.43 990.339 703.328 988.252C 715.551 987.369 727.792 986.633 739.976 985.364C 751.788 984.13403 763.494 981.901 775.433 981.905C 777.186 981.906 778.94 981.35004 781.042 980.992C 781.383 978.339 781.802 976.189 781.915 974.023C 782.52496 962.349 780.13696 951.088 776.80396 940.023C 771.11395 921.136 763.85895 902.835 755.00397 885.21704C 747.628 870.541 742.30396 855.13007 737.57196 839.473C 732.87897 823.94403 732.08496 807.982 733.43195 792.004C 734.1439 783.562 735.66 774.939 738.4379 766.965C 747.72095 740.314 757.71893 713.90204 769.3809 688.18005C 782.5709 659.08606 795.87994 630.0881 805.0269 599.34106C 811.41693 577.86005 815.7079 556.0071 817.1679 533.75507C 818.1869 518.2261 817.7169 502.52905 816.8619 486.96506C 815.8829 469.16705 813.5649 451.44907 808.8069 434.18506C 801.5819 407.97205 791.7229 382.65106 780.0199 358.21906C 765.4259 327.75305 749.5729 297.87704 733.7749 268.00507C 720.4099 242.73207 705.9489 218.05707 691.7089 193.26106C 680.0639 172.98306 668.8349 152.47107 656.1099 132.83307C 652.8789 127.84607 649.52893 122.936066 646.35095 117.91507C 639.99994 107.88107 633.993 97.617065 627.35 87.782074C 621.30597 78.83308 614.20795 70.685074 605.51996 64.113075C 604.18695 63.105076 602.47296 62.600075 600.475 61.642075C 599.501 66.07807 598.66895 69.67607 597.925 73.292076C 595.222 86.433075 590.982 99.09608 585.948 111.49808C 583.103 118.50608 578.776 124.09408 572.221 128.46808C 556.428 139.00708 539.689 147.85808 523.117 156.99008C 501.93 168.66508 481.307 181.18808 462.21802 196.04907C 451.31403 204.53908 442.21002 214.70207 435.45602 227.02907C 426.68002 243.04607 419.39102 259.70407 412.90503 276.70605C 402.43903 304.14105 386.75104 328.24106 367.59003 350.29504C 362.48602 356.16904 357.52203 362.26303 353.28104 368.76904C 342.88403 384.72205 343.45804 396.50305 354.66403 411.80203C 355.76004 413.29904 356.83102 414.86703 358.17703 416.12003C 367.96002 425.22504 377.59402 434.50702 387.72403 443.21204C 393.34103 448.03903 399.91003 451.69205 407.06204 454.05603C 419.76703 458.25403 431.26703 456.83002 440.80005 446.69302C 446.39304 440.74503 451.83206 434.65103 457.34006 428.62302C 462.09805 423.415 466.58206 417.92203 471.66306 413.052C 486.79904 398.543 504.47107 388.716 525.50806 386.045C 535.43005 384.785 545.49207 383.665 555.45105 383.92902C 565.74805 384.20203 575.41504 382.32703 584.87305 378.906C 602.80005 372.422 615.4971 359.746 625.21606 343.773C 626.3611 341.89102 627.06006 339.724 627.8561 337.646C 632.2601 326.14398 632.06805 314.41 629.6651 302.538C 628.9491 298.998 627.1551 295.464 629.0381 291.732C 632.69507 291.078 634.56006 293.69998 636.2691 295.988C 641.8211 303.424 644.2661 312.05902 643.5371 321.14902C 642.3211 336.303 637.4271 350.32303 627.0291 361.712C 621.2941 367.99402 615.1501 374.18802 608.2191 379.035C 592.9901 389.684 576.0011 395.691 557.0571 395.036C 551.4921 394.84402 545.91315 394.923 540.3441 395.05002C 538.5811 395.09003 536.5661 395.213 535.64514 398.09402C 536.5961 399.95602 537.72015 402.23404 538.9122 404.47504C 549.53516 424.44904 549.72815 444.23203 537.6932 463.70602C 531.63916 473.50104 525.5132 483.25702 519.17816 492.87103C 515.5082 498.44205 511.54916 503.84903 507.38815 509.06503C 495.57416 523.874 483.34915 538.36005 471.72916 553.31805C 453.75217 576.4601 440.54517 602.06604 433.41617 630.63104C 430.16916 643.64 428.69016 656.90906 427.17517 670.20807C 424.47018 693.9521 427.67917 716.7361 435.66318 739.2201C 440.9922 754.2271 445.0962 769.6931 449.22418 785.0941C 451.13818 792.2351 452.00018 799.6851 452.98718 807.0431C 454.22018 816.2361 455.30417 825.46106 456.05618 834.7041C 456.7902 843.7321 455.10318 852.4971 451.5702 860.8241C 449.39618 865.9491 446.8902 870.9361 444.44318 875.9411C 438.57516 887.9451 432.64618 899.9181 426.75717 911.91113C 420.99118 923.65314 417.83817 936.28516 414.24417 948.76514C 410.794 960.754 411.957 972.215 418.393 983.61zM810.668 1108.416C 811.405 1103.194 812.619 1098.827 812.526 1094.487C 812.168 1077.6691 806.254 1062.509 797.301 1048.54C 793.18805 1042.123 790.89 1041.468 783.284 1044.577C 772.289 1049.071 761.204 1053.525 749.461 1055.709C 737.787 1057.881 726.066 1059.9 714.292 1061.412C 696.983 1063.635 679.636 1065.644 662.256 1067.192C 645.98 1068.642 629.61 1069.034 613.337 1070.514C 595.49097 1072.1371 577.70496 1071.785 559.87897 1070.6111C 540.23096 1069.3181 520.569 1068.2261 500.91998 1066.9321C 490.538 1066.2482 480.14197 1065.5922 469.80597 1064.4402C 455.41696 1062.8362 441.11496 1060.3932 426.70697 1059.0361C 415.19696 1057.9512 403.82996 1056.8251 392.87897 1052.7341C 387.02298 1050.5471 385.47595 1051.2401 381.73297 1056.7671C 371.19797 1072.321 365.40198 1089.1661 368.31497 1108.691C 375.692 1115.24 384.99298 1117.8561 394.41696 1119.8771C 419.11496 1125.175 443.83295 1130.3721 469.13397 1132.0951C 493.59897 1133.7611 518.01996 1136.3601 542.508 1137.3431C 571.824 1138.5201 601.165 1139.0662 630.495 1136.0251C 664.47 1132.5022 698.691 1132.2971 732.61 1127.1062C 758.843 1123.094 783.869 1115.163 810.668 1108.416zM778.697 992.192C 757.492 994.737 737.405 998.15 716.95 999.06604C 685.797 1000.46106 654.714 1003.37103 623.57104 1005.06305C 605.04205 1006.07007 586.452 1006.3721 567.89307 1006.27106C 548.96106 1006.168 530.0381 1004.94507 511.10406 1004.6371C 481.34708 1004.1531 451.81708 1001.8181 422.67606 995.47406C 412.80606 993.3251 406.39105 996.0641 400.71106 1004.2911C 394.62506 1013.1051 392.07007 1023.1321 390.80505 1033.5261C 390.51105 1035.9431 391.59506 1038.5271 392.04205 1041.0192C 399.23105 1044.3541 406.34305 1046.1962 413.80304 1046.8751C 429.33905 1048.2881 444.87003 1049.7582 460.40002 1051.2332C 473.69803 1052.4951 486.97003 1054.1272 500.29303 1055.0072C 522.89105 1056.5002 545.525 1057.4512 568.135 1058.7872C 580.017 1059.4893 591.853 1059.7832 603.741 1058.6343C 617.043 1057.3483 630.395 1056.5992 643.72003 1055.5333C 659.63403 1054.2593 675.564 1053.1213 691.44403 1051.4983C 702.51306 1050.3663 713.46704 1047.9713 724.54706 1047.1053C 745.168 1045.4933 764.3351 1038.2883 783.9421 1032.7313C 786.25507 1032.0763 787.7801 1030.4523 788.21106 1028.0663C 789.75507 1019.5093 790.13306 1011.0633 785.38605 1003.2143C 783.284 999.741 781.175 996.275 778.697 992.192zM651.233 101.37C 655.58295 113.006004 661.472 120.694 666.74 128.741C 674.657 140.836 683.104 152.623 690.373 165.096C 704.942 190.099 719.091 215.35599 732.996 240.736C 747.61694 267.422 761.66595 294.421 776.12396 321.198C 788.85 344.768 798.99695 369.485 808.91095 394.298C 819.855 421.69 827.37994 450.021 829.22296 479.527C 830.98395 507.70502 831.58997 535.934 826.673 563.958C 826.42596 565.364 824.79 567.243 827.149 568.525C 827.726 567.88 828.357 567.424 828.654 566.807C 836.712 550.076 844.138 533.068 849.917 515.407C 851.519 510.50998 852.656 505.33197 853.096 500.205C 855.38 473.586 852.562 447.61798 842.79803 422.534C 837.14606 408.013 831.34705 393.505 826.66705 378.66C 819.81805 356.934 809.8771 336.665 799.5931 316.48502C 795.17706 307.821 790.01605 299.609 783.2261 292.725C 774.84106 284.22202 770.43005 273.90802 766.7621 262.849C 763.1501 251.959 759.0061 241.195 754.3121 230.72699C 743.95605 207.635 729.9681 186.534 717.2051 164.76599C 716.4551 163.48698 715.6971 162.18 714.7361 161.064C 701.65106 145.875 688.7571 130.499 673.9701 116.892C 667.735 111.158 660.809 106.343 651.233 101.37zM503.881 154.537C 505.32202 154.086 506.432 153.923 507.35703 153.42C 523.97705 144.377 540.57904 135.301 557.171 126.208C 559.448 124.96 561.615 123.51 563.901 122.28C 568.324 119.9 571.476 116.466995 573.349 111.769C 576.371 104.188995 579.558 96.674995 582.568 89.090996C 582.92596 88.187996 582.61597 87.02 582.61597 85.992C 570.772 85.327995 552.34796 91.337 543.193 98.94199C 546.72 100.46999 550.093 101.76499 553.3 103.38799C 555 104.24899 556.094 105.79099 554.734 108.354996C 553.584 108.54099 552.13403 109.102 550.763 108.949C 535.15 107.207 520.608 111.734 506.18 116.63C 496.569 119.891 490.116 126.664 485.938 136.864C 489.082 139.40399 492.45898 141.719 495.31998 144.554C 498.428 147.632 501.054 151.195 503.881 154.537z" stroke="none" fill="#91867E" fill-rule="nonzero" />
        <path d="M467.439 256.515C 468.768 246.69902 473.63 235.30402 478.915 229.56902C 488.368 219.31201 502.556 216.11201 515.603 221.44202C 516.809 221.93402 517.656 223.30402 518.668 224.26602C 513.997 231.49503 507.72403 226.50603 502.31003 226.87502C 505.27704 239.94601 504.46304 245.01901 497.77402 250.18301C 490.71103 255.63602 486.169 256.401 476.23602 251.02402C 472.453 251.441 472.045 257.338 467.439 256.515z" stroke="none" fill="#91867E" fill-rule="nonzero" />
        <path d="M373.486 417.507C 372.149 415.444 370.617 414.077 370.357 412.50098C 369.375 406.55298 366.865 401.32297 363.984 396.12497C 362.776 393.94498 362.21802 391.24796 361.97 388.72598C 361.473 383.675 364.094 379.51398 368.177 378.111C 372.327 376.684 376.756 378.366 379.585 382.706C 383.884 389.304 384.375 396.651 382.68 404.031C 381.876 407.534 379.953 410.857 378.102 414.006C 377.294 415.38 375.396 416.113 373.486 417.507z" stroke="none" fill="#91867E" fill-rule="nonzero" />
	</g>
</g>
</svg>